<?xml version="1.0" standalone="no"?>
<!DOCTYPE svg PUBLIC "-//W3C//DTD SVG 20010904//EN"
 "http://www.w3.org/TR/2001/REC-SVG-20010904/DTD/svg10.dtd">
<svg version="1.0" xmlns="http://www.w3.org/2000/svg"
 width="500.000000pt" height="500.000000pt" viewBox="0 0 500.000000 500.000000"
 preserveAspectRatio="xMidYMid meet">

<g transform="translate(0.000000,500.000000) scale(0.100000,-0.100000)"
fill="#000000" stroke="none">
<path d="M5 4779 c3 -122 7 -225 10 -229 2 -4 29 -3 60 1 89 12 266 12 475 0
388 -22 478 -29 490 -36 19 -12 213 -14 234 -2 11 5 43 29 73 53 73 60 155 84
287 84 93 0 106 -3 156 -29 103 -54 155 -84 207 -118 46 -32 55 -34 85 -25 18
6 49 13 69 16 21 4 52 17 70 29 128 86 272 128 412 121 45 -2 87 -4 92 -4 6 0
66 9 135 20 108 18 147 20 280 14 235 -11 309 -8 408 18 23 6 63 8 88 5 43 -4
51 -1 123 47 81 56 187 101 262 111 54 8 142 -8 214 -38 43 -18 147 -93 167
-121 3 -5 62 -6 145 -2 305 15 431 24 442 30 7 5 11 54 11 142 l0 134 -2501 0
-2500 0 6 -221z"/>
<path d="M2350 4521 c-53 -11 -94 -34 -105 -58 -6 -14 -39 -35 -95 -59 -47
-20 -94 -45 -105 -56 -19 -18 -19 -18 7 -18 14 0 72 23 128 51 93 46 104 50
131 39 16 -7 33 -19 37 -26 13 -23 121 -71 147 -66 24 4 39 27 29 43 -3 5 -23
18 -45 30 -70 35 -106 89 -60 89 19 0 38 17 29 26 -10 9 -65 12 -98 5z"/>
<path d="M1171 4424 c0 -11 3 -14 6 -6 3 7 2 16 -1 19 -3 4 -6 -2 -5 -13z"/>
<path d="M510 4311 c0 -6 -13 -23 -30 -38 -16 -14 -30 -33 -30 -42 0 -9 -9
-40 -20 -69 -14 -36 -18 -65 -14 -86 4 -25 2 -35 -10 -39 -21 -8 -20 -23 0
-31 22 -9 46 14 99 94 62 93 76 107 131 128 63 25 70 52 19 71 -52 18 -145 27
-145 12z"/>
<path d="M3019 4276 c-20 -7 -50 -23 -68 -35 -17 -12 -31 -18 -31 -12 0 6 -11
11 -24 11 -20 0 -27 -8 -40 -47 -19 -56 -19 -53 -2 -53 8 0 28 14 45 32 27 29
30 30 46 14 65 -65 277 -97 368 -55 40 18 36 54 -12 99 -24 23 -56 41 -84 49
-60 15 -153 13 -198 -3z"/>
<path d="M91 4161 c-9 -6 -10 -11 -2 -15 15 -9 13 -47 -2 -68 -14 -18 -30 -13
-40 12 -3 9 -6 4 -6 -11 -1 -15 -8 -29 -16 -33 -9 -3 -15 -18 -15 -37 0 -24 4
-30 15 -25 9 3 15 0 15 -8 0 -8 -7 -16 -15 -20 -9 -3 -15 -18 -15 -38 0 -33
14 -29 23 7 3 15 5 13 6 -8 0 -16 5 -25 11 -22 5 3 28 -6 50 -21 l41 -27 -30
-13 c-17 -7 -31 -18 -31 -24 0 -5 -9 -10 -19 -10 -14 0 -18 5 -14 20 4 14 0
20 -11 20 -11 0 -16 -9 -16 -32 0 -18 -3 -51 -7 -73 -6 -36 -5 -39 10 -27 14
12 16 9 20 -20 2 -22 5 -13 7 27 1 33 4 51 7 40 11 -51 44 -105 63 -105 18 0
17 -2 -5 -26 -13 -14 -29 -23 -34 -19 -12 7 -15 -27 -5 -38 10 -10 44 12 44
28 0 8 8 15 18 15 10 0 23 5 29 11 8 8 13 8 17 0 4 -6 0 -11 -9 -11 -11 0 -15
-7 -13 -22 2 -17 11 -24 30 -26 21 -3 27 0 22 12 -3 9 4 19 20 28 28 15 73 91
56 96 -5 2 -10 14 -10 27 0 12 -7 28 -15 35 -8 7 -15 18 -15 26 0 7 -9 16 -21
19 -16 5 -18 10 -8 21 6 8 8 14 3 15 -5 0 1 4 14 9 23 10 30 34 12 45 -6 4 -8
11 -4 16 11 18 -6 58 -27 64 -16 6 -19 12 -14 36 7 30 -19 123 -40 144 -13 14
-56 17 -74 6z m109 -271 c0 -5 7 -10 17 -10 9 0 14 -3 10 -6 -8 -9 -67 6 -67
17 0 5 9 9 20 9 11 0 20 -4 20 -10z m-40 -216 c0 -8 -5 -12 -10 -9 -6 4 -8 11
-5 16 9 14 15 11 15 -7z"/>
<path d="M58 4142 c-3 -9 -1 -26 3 -37 6 -15 8 -11 8 18 1 40 -4 48 -11 19z"/>
<path d="M4981 3991 c-1 -8 -4 -12 -7 -8 -6 6 -34 -16 -34 -27 0 -3 9 -6 20
-6 22 0 35 21 27 42 -4 10 -6 9 -6 -1z"/>
<path d="M1970 3950 c-12 -7 -12 -12 -3 -21 9 -9 16 -9 28 1 29 24 9 42 -25
20z"/>
<path d="M2216 3953 c-12 -12 -6 -23 13 -23 10 0 29 -15 42 -34 13 -19 28 -32
34 -28 12 8 33 12 62 14 13 0 28 7 34 14 6 8 20 14 30 14 22 0 33 16 17 26 -6
4 -56 9 -111 11 -54 1 -102 5 -106 8 -5 2 -11 2 -15 -2z"/>
<path d="M1877 3934 c-8 -8 1 -24 13 -24 4 0 10 7 14 15 5 15 -14 21 -27 9z"/>
<path d="M1830 3915 c0 -9 5 -15 11 -13 6 2 11 8 11 13 0 5 -5 11 -11 13 -6 2
-11 -4 -11 -13z"/>
<path d="M4673 3911 c-3 -11 -15 -22 -28 -25 -13 -3 -28 -18 -33 -33 -19 -50
-57 -83 -97 -83 -32 0 -35 -3 -35 -28 0 -16 3 -32 7 -35 3 -4 8 -24 10 -45 2
-20 8 -52 14 -70 8 -24 8 -37 -1 -46 -7 -10 -8 -16 -1 -21 6 -3 11 -20 11 -38
-1 -18 2 -48 5 -68 6 -31 2 -41 -25 -73 -31 -35 -32 -40 -26 -92 6 -50 5 -55
-11 -52 -10 2 -17 10 -15 17 3 13 -21 41 -35 41 -12 0 -44 56 -37 63 4 3 -6 9
-21 13 -15 4 -30 3 -34 -2 -3 -6 -27 -10 -52 -9 -34 0 -46 4 -45 15 1 8 -9 19
-22 25 -12 5 -20 14 -18 20 2 5 -1 18 -6 28 -9 17 -11 17 -34 -5 -25 -23 -49
-66 -45 -82 1 -4 -5 -19 -13 -32 -21 -32 -9 -59 39 -89 37 -22 42 -23 63 -9
15 10 34 13 50 9 31 -8 64 -34 57 -45 -3 -4 2 -10 10 -14 8 -3 15 -11 15 -17
0 -7 7 -20 15 -29 9 -10 18 -30 21 -45 3 -16 10 -37 15 -48 15 -27 3 -80 -25
-110 -31 -33 -39 -57 -21 -57 8 0 15 -4 15 -10 0 -17 -38 -30 -69 -24 -32 7
-46 30 -35 58 4 11 1 16 -14 16 -11 0 -22 -6 -25 -12 -3 -10 -9 -10 -27 0 -32
19 -35 9 -10 -40 36 -68 36 -69 60 -153 12 -44 26 -89 30 -100 30 -75 41 -220
20 -241 -6 -6 -12 -39 -14 -75 -2 -35 -11 -95 -19 -132 -9 -38 -16 -72 -15
-75 1 -4 -6 -43 -16 -87 -22 -94 -72 -191 -133 -255 -47 -49 -51 -63 -27 -88
19 -18 2 -31 -19 -14 -30 23 -48 21 -82 -9 -19 -17 -35 -37 -35 -45 0 -8 -4
-14 -10 -14 -5 0 -13 -12 -16 -27 -8 -32 -34 -63 -51 -63 -8 0 -13 -13 -13
-36 0 -29 -3 -35 -16 -30 -10 4 -23 -1 -33 -11 -9 -10 -23 -19 -31 -21 -8 -2
-26 -16 -40 -31 -14 -15 -31 -26 -38 -23 -19 6 -100 -20 -121 -39 -9 -9 -44
-25 -77 -37 -32 -11 -90 -36 -129 -55 -47 -23 -92 -37 -137 -41 -38 -4 -68
-11 -68 -15 0 -4 -26 -7 -57 -7 -32 1 -89 -3 -128 -8 -38 -4 -112 -8 -163 -7
-87 0 -96 -2 -133 -29 -22 -15 -57 -31 -79 -35 -26 -4 -41 -13 -45 -26 -4 -10
-15 -24 -26 -29 -10 -6 -19 -18 -19 -26 0 -12 -7 -15 -30 -12 -17 3 -30 1 -30
-3 0 -14 -49 -19 -75 -7 -21 9 -28 9 -35 -1 -5 -9 -17 -11 -32 -8 -13 4 -36 0
-52 -8 -20 -11 -32 -12 -41 -5 -9 8 -26 6 -56 -6 -24 -9 -71 -15 -104 -15 -76
1 -186 -18 -203 -36 -12 -12 -51 -15 -176 -13 -54 1 -110 30 -114 58 -5 31
-21 36 -73 22 -31 -9 -44 -9 -47 -1 -6 19 -32 12 -32 -9 0 -18 5 -20 37 -16
31 3 34 2 20 -9 -22 -16 -3 -35 35 -35 45 0 99 -26 92 -45 -4 -10 3 -23 20
-36 14 -11 26 -27 26 -36 0 -13 9 -15 56 -9 50 6 56 4 61 -14 6 -23 20 -23
133 -7 41 6 81 17 88 24 7 7 27 13 43 13 38 0 44 -3 43 -17 -1 -9 12 -13 38
-13 45 0 108 33 108 57 0 11 8 13 35 10 21 -3 39 0 45 8 6 7 28 15 49 19 22 3
41 13 45 22 4 11 14 15 31 12 15 -3 26 0 29 9 3 8 11 13 18 12 7 -1 28 2 46 6
26 6 34 14 39 36 4 23 11 29 31 29 13 0 30 -7 36 -15 8 -10 40 -16 116 -19 58
-3 116 -7 130 -9 14 -2 33 1 43 6 13 6 24 4 36 -7 22 -20 31 -20 31 -2 0 15 7
16 64 17 25 1 79 -17 127 -41 18 -9 39 6 39 27 0 32 30 8 54 -42 20 -42 31
-55 48 -56 13 0 59 -2 103 -3 44 -2 96 -6 115 -10 19 -4 61 -3 94 2 39 6 70 6
93 -1 30 -9 36 -8 45 7 7 12 17 16 33 12 37 -9 56 2 49 31 -6 22 -4 24 27 22
77 -6 93 0 123 43 23 34 26 45 17 60 -15 25 4 23 22 -2 12 -17 23 -20 76 -17
78 5 112 27 114 77 2 30 5 35 27 34 25 -1 50 16 50 36 0 7 8 9 20 5 12 -4 27
-1 35 5 19 16 85 4 85 -15 0 -8 -4 -17 -10 -20 -5 -3 -10 -14 -10 -24 0 -10
-7 -24 -15 -31 -23 -19 -18 -30 15 -30 20 0 30 -5 30 -15 0 -24 -26 -28 -54
-10 -26 17 -56 15 -56 -5 0 -5 16 -10 35 -10 19 0 35 -4 35 -10 0 -5 -4 -10
-10 -10 -15 0 -12 -29 5 -46 8 -9 15 -26 15 -39 0 -19 -6 -24 -32 -27 -27 -2
-32 -7 -30 -25 4 -26 -23 -43 -67 -43 -38 0 -83 -20 -78 -34 4 -13 43 -14 105
-3 55 10 54 -5 -4 -46 -39 -27 -43 -32 -25 -35 12 -2 21 -10 21 -18 0 -11 10
-14 38 -12 32 3 37 6 37 28 0 20 5 25 25 26 14 0 31 3 38 8 17 10 15 43 -3 50
-22 8 -18 26 5 26 11 0 20 -7 20 -15 0 -21 23 -19 53 5 26 21 44 24 72 14 15
-6 15 -8 0 -24 -16 -17 -15 -20 8 -35 19 -12 25 -25 25 -52 0 -26 6 -41 21
-53 37 -27 18 -46 -52 -54 -46 -5 -66 -11 -78 -27 -12 -16 -32 -23 -85 -29
-38 -4 -74 -5 -80 -3 -6 2 -14 -3 -18 -12 -4 -11 -12 -14 -26 -10 -28 9 -73
-2 -96 -23 -11 -10 -46 -23 -78 -29 -66 -14 -77 -20 -56 -33 12 -8 12 -10 -2
-15 -9 -4 -14 -13 -12 -20 8 -20 -34 -39 -60 -27 -36 17 -52 20 -65 13 -8 -5
5 -13 33 -21 47 -13 53 -30 10 -30 -15 0 -24 -6 -24 -15 0 -8 -6 -15 -14 -15
-7 0 -27 -7 -42 -15 -16 -8 -38 -15 -50 -15 -23 0 -68 29 -45 30 8 0 12 2 10
5 -3 2 -23 -2 -45 -10 -42 -14 -114 -6 -141 17 -16 13 -19 11 -26 -28 -6 -31
11 -79 28 -79 19 -1 55 -26 55 -38 0 -7 -9 -20 -20 -30 -35 -29 -23 -37 55
-37 60 0 75 3 75 15 0 8 -7 15 -15 15 -8 0 -15 4 -15 9 0 11 96 35 108 27 6
-3 15 1 22 9 7 8 20 15 29 15 10 0 30 13 46 30 16 16 35 30 42 30 7 0 31 12
53 26 39 26 44 44 12 44 -40 1 -38 16 3 18 24 1 67 12 97 26 49 22 101 37 138
41 9 0 21 4 27 8 7 4 49 10 95 12 79 4 127 16 175 43 12 7 28 12 37 12 8 0 16
6 19 13 3 8 14 3 31 -15 27 -28 34 -48 16 -48 -5 0 -17 -14 -25 -30 -9 -17
-28 -36 -43 -43 -15 -6 -30 -16 -33 -20 -7 -10 -57 -16 -149 -20 -46 -2 -55
-5 -52 -19 3 -20 -14 -24 -21 -5 -4 9 -8 8 -16 -3 -8 -12 -11 -12 -11 -1 0 9
-4 10 -12 4 -7 -6 -26 -13 -42 -17 -15 -4 -35 -13 -43 -21 -12 -12 -10 -15 14
-21 46 -10 53 -13 53 -24 0 -7 -13 -9 -35 -4 -29 5 -34 4 -29 -9 6 -17 -20
-24 -91 -26 -61 -2 -70 -8 -71 -42 -1 -19 2 -26 7 -18 6 10 13 10 34 1 36 -17
285 -17 285 0 0 9 3 9 12 0 7 -7 28 -12 48 -12 26 0 42 8 63 30 16 16 35 30
43 30 7 0 16 11 20 25 4 15 16 28 30 31 13 3 24 10 24 15 0 5 6 9 13 9 7 0 23
13 35 30 13 16 32 30 43 30 28 0 60 -40 49 -60 -10 -19 -3 -32 25 -48 17 -10
18 -11 3 -12 -10 0 -18 -4 -18 -10 0 -5 14 -10 30 -10 27 0 30 -3 30 -30 l0
-30 75 0 76 0 -7 457 c-4 252 -9 460 -12 463 -2 3 -7 -1 -9 -7 -7 -20 -35 13
-31 35 2 11 -3 26 -11 35 -7 10 -10 17 -6 17 4 0 2 6 -4 14 -17 20 -3 66 20
66 10 0 19 5 19 11 0 5 -5 7 -11 4 -15 -10 -49 24 -42 42 4 9 14 13 29 10 13
-2 24 0 24 4 0 5 -6 9 -14 9 -7 0 -16 9 -19 20 -4 17 -9 19 -32 10 -15 -6 -40
-19 -55 -30 -35 -25 -40 -25 -40 -1 0 10 18 36 41 57 75 71 89 89 89 111 0 12
3 28 6 36 3 9 -3 17 -18 21 -14 5 -18 9 -10 13 6 2 12 13 12 24 0 12 7 19 19
19 42 0 51 10 50 59 -2 45 -2 46 -9 11 l-7 -35 -3 35 c-1 19 -4 27 -7 18 -2
-10 -19 -22 -36 -26 -18 -5 -31 -12 -31 -18 2 -16 -30 -32 -78 -39 -57 -9 -72
8 -26 29 18 8 58 38 88 66 30 28 67 59 83 68 22 14 27 23 27 57 0 30 -4 42
-15 42 -8 0 -15 -7 -15 -16 -1 -13 -2 -13 -11 2 -15 25 -4 53 15 38 8 -7 17
-8 20 -3 5 8 7 519 6 1555 l0 417 -25 0 c-13 0 -35 -5 -49 -11 -14 -7 -33 -9
-42 -5 -16 6 -14 9 11 26 16 10 32 17 37 14 4 -3 18 1 30 8 13 7 26 11 31 10
4 -1 7 22 7 51 0 37 -3 48 -10 37 -5 -8 -10 -10 -10 -4 0 7 -11 9 -25 6 -19
-3 -25 0 -25 13 0 14 -5 16 -27 10 -16 -3 -30 -11 -32 -17 -3 -10 -21 -28 -55
-55 -19 -16 -56 -17 -56 -2 0 6 8 13 18 16 18 4 68 90 58 100 -2 2 -27 0 -55
-5 -50 -9 -51 -9 -51 14 0 30 -39 34 -47 5z m267 -121 c0 -5 -4 -10 -9 -10 -6
0 -13 5 -16 10 -3 6 1 10 9 10 9 0 16 -4 16 -10z m-440 -479 c0 -6 -4 -13 -10
-16 -5 -3 -10 1 -10 9 0 9 5 16 10 16 6 0 10 -4 10 -9z m-179 -553 c23 -26 24
-37 3 -45 -19 -7 -44 21 -44 49 0 24 19 23 41 -4z m617 -1116 c2 -7 -7 -12
-23 -12 -24 0 -26 2 -15 15 14 17 31 16 38 -3z m-823 -522 c13 -26 14 -30 1
-30 -8 0 -18 5 -22 12 -5 8 -10 6 -16 -8 -7 -17 -8 -16 -4 3 2 13 0 26 -5 29
-16 9 -10 24 11 24 12 0 26 -12 35 -30z m-66 -49 c-16 -5 -33 15 -24 30 6 9
12 7 22 -7 9 -13 10 -20 2 -23z m-39 16 c0 -5 -4 -5 -10 -2 -5 3 -10 1 -10 -4
0 -6 8 -11 18 -11 14 0 13 -4 -7 -19 -15 -11 -19 -20 -12 -22 7 -3 0 -14 -17
-26 -23 -17 -36 -20 -58 -14 -16 4 -28 9 -26 12 2 2 -1 15 -6 29 -26 69 -29
65 53 65 41 0 75 -4 75 -8z m-143 -54 c4 -10 -37 -26 -45 -18 -3 3 1 12 8 20
14 17 31 16 37 -2z m-1057 -23 c0 -5 -2 -10 -4 -10 -3 0 -8 5 -11 10 -3 6 -1
10 4 10 6 0 11 -4 11 -10z m875 0 c3 -5 14 -10 24 -10 27 0 43 -24 35 -55 -6
-26 -7 -26 -28 -7 -30 27 -47 36 -44 22 2 -8 -18 -13 -59 -15 -63 -3 -64 -2
-63 33 0 4 8 7 18 8 9 0 25 4 35 8 9 5 23 6 30 3 23 -8 32 -6 29 9 -3 16 14
19 23 4z m-939 -11 c10 -17 -23 -46 -37 -32 -8 8 -8 15 2 27 17 18 26 20 35 5z
m-163 -13 c6 -15 -1 -26 -15 -26 -4 0 -8 9 -8 20 0 23 15 27 23 6z m577 -24
c0 -8 -1 -13 -3 -11 -1 2 -9 12 -16 22 -12 15 -12 17 3 11 9 -3 16 -13 16 -22z
m1255 -92 c-3 -5 -13 -10 -21 -10 -8 0 -12 5 -9 10 3 6 13 10 21 10 8 0 12 -4
9 -10z m-2528 -116 c-3 -3 -12 -4 -19 -1 -8 3 -5 6 6 6 11 1 17 -2 13 -5z
m2602 -348 c14 -17 -5 -26 -55 -26 -38 0 -42 -6 -16 -27 15 -11 9 -13 -44 -9
-70 4 -84 10 -84 36 0 12 6 17 18 14 9 -3 46 2 82 10 85 18 86 18 99 2z m-804
-266 c3 -6 -5 -10 -19 -10 -14 0 -28 5 -31 10 -3 6 5 10 19 10 14 0 28 -4 31
-10z"/>
<path d="M1007 3905 c-4 -8 -2 -17 3 -20 6 -4 10 3 10 14 0 25 -6 27 -13 6z"/>
<path d="M1768 3913 c-19 -3 -28 -10 -28 -23 0 -28 18 -34 45 -16 23 15 36 48
18 45 -5 -1 -20 -4 -35 -6z"/>
<path d="M2596 3903 c-17 -18 11 -37 34 -23 10 6 8 10 -7 19 -11 5 -23 7 -27
4z"/>
<path d="M2656 3882 c-8 -13 11 -35 23 -28 16 10 14 36 -3 36 -8 0 -17 -4 -20
-8z"/>
<path d="M2070 3871 c0 -11 23 -31 37 -31 19 0 4 27 -18 33 -10 3 -19 2 -19
-2z"/>
<path d="M2725 3860 c-3 -5 -4 -14 -1 -19 5 -8 -67 -81 -80 -81 -4 0 -4 11 -2
25 3 13 1 22 -3 19 -5 -3 -9 -14 -9 -25 0 -11 -7 -33 -15 -50 -14 -26 -14 -30
-1 -35 23 -9 63 26 86 74 19 40 39 51 47 25 4 -12 -19 -38 -39 -46 -10 -4 -11
-7 0 -18 6 -7 12 -9 12 -3 0 5 15 15 34 22 18 7 38 22 45 35 9 17 10 17 5 2
-11 -35 -9 -50 6 -50 8 0 19 10 25 23 12 27 29 29 20 2 -8 -24 3 -25 33 -4 30
21 41 10 16 -17 -18 -20 -18 -20 11 -14 17 4 38 9 48 12 23 6 22 -14 -2 -22
-10 -3 -29 -15 -42 -27 l-24 -20 24 7 c31 9 181 12 181 3 0 -4 -18 -12 -40
-18 -21 -6 -42 -16 -46 -22 -7 -11 11 -9 47 6 10 4 23 0 34 -10 16 -16 19 -16
48 1 34 20 57 40 57 49 0 3 -13 6 -30 6 -18 0 -39 10 -54 25 -29 29 -90 65
-110 65 -8 0 -16 5 -18 11 -2 6 -21 13 -43 16 -22 3 -43 9 -46 14 -3 6 -26 12
-50 15 -24 3 -57 12 -73 20 -34 17 -43 17 -51 4z"/>
<path d="M2150 3776 c-6 -6 -6 -14 0 -22 7 -8 7 -21 0 -38 -5 -15 -10 -40 -10
-56 0 -16 -4 -32 -10 -35 -6 -4 -3 -16 7 -32 l17 -26 17 39 c10 21 18 47 18
57 1 10 6 15 11 12 6 -3 10 3 10 13 0 11 7 36 15 55 8 20 15 38 15 40 0 9 -81
2 -90 -7z"/>
<path d="M1864 3736 c-8 -21 8 -106 21 -109 15 -3 13 115 -2 120 -7 3 -16 -2
-19 -11z"/>
<path d="M2540 3680 c0 -5 5 -10 10 -10 6 0 10 5 10 10 0 6 -4 10 -10 10 -5 0
-10 -4 -10 -10z"/>
<path d="M10 3636 c0 -30 4 -45 10 -41 11 7 8 70 -3 82 -4 3 -7 -15 -7 -41z"/>
<path d="M830 3670 c0 -5 7 -10 15 -10 8 0 15 5 15 10 0 6 -7 10 -15 10 -8 0
-15 -4 -15 -10z"/>
<path d="M3185 3633 c-57 -38 -68 -50 -54 -59 8 -4 3 -11 -12 -20 -13 -7 -18
-13 -11 -14 7 0 23 6 35 14 15 9 39 11 77 7 63 -7 57 -18 -10 -19 -25 0 -61
-7 -80 -15 l-35 -15 35 -1 c28 -1 32 -4 20 -12 -11 -8 -4 -9 27 -5 23 3 44 2
48 -3 3 -5 21 -7 40 -4 38 6 51 -15 15 -24 -11 -3 -20 -9 -20 -14 0 -5 -21
-10 -47 -11 l-48 -1 44 -4 c40 -4 42 -5 25 -18 -17 -13 -14 -14 30 -11 43 3
47 2 32 -9 -9 -7 -13 -16 -8 -19 15 -9 85 -8 125 2 39 10 47 3 21 -19 -14 -11
-10 -15 28 -30 24 -10 37 -18 30 -18 -7 -1 -11 -5 -7 -10 7 -12 95 -5 108 8 7
7 1 12 -16 17 -15 3 -25 10 -22 14 7 12 -18 56 -59 101 -19 22 -43 52 -52 67
-16 27 -55 52 -83 52 -9 0 -29 18 -45 40 -16 21 -33 37 -37 35 -4 -3 -14 2
-22 10 -21 20 -26 19 -72 -12z m215 -207 c0 -2 -7 -7 -16 -10 -8 -3 -12 -2 -9
4 6 10 25 14 25 6z"/>
<path d="M10 3570 c0 -5 5 -10 11 -10 5 0 7 5 4 10 -3 6 -8 10 -11 10 -2 0 -4
-4 -4 -10z"/>
<path d="M240 3560 c1 -31 72 -57 91 -34 10 12 8 16 -9 21 -12 3 -22 9 -22 13
0 4 -13 7 -30 6 -16 -1 -30 -3 -30 -6z"/>
<path d="M818 3546 c-10 -8 -14 -17 -8 -25 6 -11 11 -8 20 9 14 27 10 32 -12
16z"/>
<path d="M3030 3545 c0 -8 2 -15 4 -15 2 0 6 7 10 15 3 8 1 15 -4 15 -6 0 -10
-7 -10 -15z"/>
<path d="M84 3525 c-16 -13 -32 -21 -36 -18 -5 2 -8 -2 -8 -10 0 -9 13 -14 39
-15 22 -1 51 -6 66 -12 34 -13 35 -13 35 4 0 8 11 17 25 20 14 4 25 11 25 17
0 6 4 8 9 5 5 -4 7 3 4 14 -3 11 -12 20 -20 20 -9 0 -13 -6 -10 -14 4 -9 -4
-18 -23 -24 -25 -9 -32 -7 -52 13 l-24 24 -30 -24z"/>
<path d="M10 3489 c0 -11 4 -17 10 -14 13 8 13 35 0 35 -5 0 -10 -9 -10 -21z"/>
<path d="M87 3383 c-4 -3 -7 -17 -7 -30 0 -16 6 -23 20 -23 18 0 40 26 40 49
0 12 -43 15 -53 4z"/>
<path d="M2744 3319 c-68 -12 -166 -64 -220 -116 -47 -45 -53 -57 -70 -126
-15 -67 -16 -84 -5 -130 27 -113 59 -163 129 -205 41 -23 58 -26 164 -30 110
-4 199 5 268 28 14 5 37 11 52 14 33 7 90 84 107 146 17 58 51 120 68 121 7 1
18 3 23 4 6 1 13 3 16 4 4 0 1 8 -7 17 -11 13 -9 14 14 9 17 -5 27 -3 27 4 0
6 -6 11 -14 11 -7 0 -16 10 -20 23 -3 12 -7 24 -8 26 -2 2 7 5 19 6 33 2 41
15 15 22 -12 3 -22 9 -22 14 0 4 -17 7 -38 6 -26 -1 -49 7 -72 23 -80 57 -138
85 -230 110 -82 22 -144 28 -196 19z m-122 -321 c-8 -8 -9 -4 -5 13 4 13 8 18
11 10 2 -7 -1 -18 -6 -23z m98 -13 c0 -8 -8 -15 -18 -15 -10 0 -23 -5 -30 -12
-17 -17 -16 8 1 27 16 19 47 19 47 0z m410 -69 c0 -3 -4 -8 -10 -11 -5 -3 -10
-1 -10 4 0 6 5 11 10 11 6 0 10 -2 10 -4z"/>
<path d="M575 3310 c4 -6 11 -8 16 -5 14 9 11 15 -7 15 -8 0 -12 -5 -9 -10z"/>
<path d="M666 3303 c-11 -11 -6 -23 9 -23 8 0 15 4 15 9 0 13 -16 22 -24 14z"/>
<path d="M3280 3306 c0 -2 18 -6 40 -8 22 -2 40 0 40 4 0 5 -18 8 -40 8 -22 0
-40 -2 -40 -4z"/>
<path d="M263 3283 c-34 -23 -28 -33 17 -33 22 0 40 4 40 9 0 5 2 15 5 23 8
19 -35 20 -62 1z"/>
<path d="M3430 3290 c-12 -8 -10 -10 8 -10 13 0 20 4 17 10 -7 12 -6 12 -25 0z"/>
<path d="M3610 3265 c-7 -8 -10 -18 -7 -21 11 -11 59 6 54 19 -6 18 -32 20
-47 2z"/>
<path d="M53 3253 c-7 -3 -13 -17 -14 -31 0 -15 -3 -21 -6 -14 -8 21 -23 13
-23 -14 0 -22 2 -25 15 -14 10 9 15 9 15 1 0 -24 19 -9 30 25 12 36 5 55 -17
47z"/>
<path d="M664 3239 c-17 -5 -39 -18 -49 -29 -10 -11 -26 -20 -35 -20 -16 0
-60 -35 -60 -48 0 -4 11 -20 25 -36 23 -27 27 -28 65 -18 53 13 51 2 -5 -28
-38 -21 -53 -37 -57 -60 -1 -3 -8 -11 -17 -17 -15 -12 -14 -14 1 -27 17 -12
17 -14 -1 -30 -21 -19 -51 -15 -71 9 -14 17 -57 20 -62 5 -1 -5 -23 0 -47 11
-34 15 -47 17 -58 7 -11 -9 -7 -13 22 -24 47 -16 51 -20 34 -40 -11 -14 -11
-18 -1 -22 7 -2 20 -11 29 -20 12 -12 18 -13 21 -4 2 7 8 10 13 7 5 -3 18 -1
29 5 16 9 22 8 26 -5 3 -8 12 -15 19 -15 22 0 29 -22 12 -35 -10 -7 -17 -17
-17 -23 0 -6 -7 -15 -16 -20 -13 -7 -14 -11 -4 -17 7 -4 15 -3 19 3 4 7 12 8
21 2 12 -7 11 -12 -4 -29 -10 -11 -25 -17 -33 -14 -8 3 -25 0 -39 -7 -30 -17
-77 1 -68 25 5 12 -2 15 -31 15 -22 0 -34 4 -30 10 4 6 11 8 16 5 13 -9 11 7
-4 27 -7 9 -22 16 -33 15 -13 -1 -20 5 -22 20 -2 15 -8 20 -19 16 -12 -5 -14
1 -12 28 2 19 -1 40 -5 48 -5 8 -3 16 5 22 11 6 10 9 -4 15 -11 4 -25 0 -36
-10 -15 -13 -111 -39 -118 -32 -2 1 2 18 7 36 14 48 6 65 -29 65 l-30 0 0
-242 c0 -216 5 -273 22 -230 3 6 6 0 6 -15 1 -20 -3 -26 -14 -22 -13 5 -15
-16 -15 -155 0 -143 2 -161 17 -161 15 0 15 -2 -1 -19 -17 -18 -18 -85 -18
-1078 0 -582 0 -1064 1 -1070 1 -10 73 -13 325 -13 l325 0 7 45 c3 25 10 48
15 51 5 3 9 18 9 35 0 16 3 29 8 29 12 0 33 56 27 73 -4 8 -2 18 4 22 6 3 11
17 11 29 0 13 9 35 20 48 15 20 18 32 10 57 -5 17 -5 33 0 36 16 10 52 96 54
127 1 18 8 34 16 36 8 3 21 12 29 19 12 12 11 16 -8 30 -15 10 -20 21 -15 32
10 24 25 102 24 130 0 13 -5 30 -10 37 -8 8 -8 14 0 19 6 3 7 11 4 17 -10 15
17 88 33 88 7 0 13 4 13 9 0 11 59 10 76 -1 13 -8 54 1 54 12 0 5 -8 11 -17
13 -16 4 -16 5 -1 6 9 0 20 -4 23 -9 3 -6 17 -10 31 -10 14 0 22 4 19 10 -3 6
-15 10 -26 10 -10 0 -19 5 -19 11 0 5 -4 8 -10 4 -5 -3 -21 -3 -35 1 -19 5
-23 10 -16 17 16 16 13 24 -9 30 -12 3 -20 14 -21 29 -1 27 -5 47 -14 71 -6
13 -1 18 25 23 38 8 50 33 45 95 -3 48 18 95 47 105 10 3 18 10 18 15 0 5 10
9 23 8 20 0 20 -1 3 -8 -14 -5 -16 -10 -8 -15 7 -4 10 -12 7 -17 -4 -5 6 -9
20 -9 21 0 26 -4 21 -16 -9 -24 30 -54 63 -49 14 2 43 7 64 10 20 3 37 9 37
14 0 10 -137 72 -153 69 -7 -1 -23 8 -37 21 -14 13 -65 54 -115 92 -49 37
-103 78 -120 91 -16 13 -35 22 -42 20 -7 -1 -11 3 -8 10 2 7 -14 33 -36 58
l-41 44 -20 -24 -20 -25 18 32 c15 26 15 34 4 48 -12 14 -15 14 -33 -2 -20
-18 -20 -18 -2 10 16 25 16 29 2 45 -9 9 -21 28 -27 42 -11 27 -51 86 -73 110
-8 8 -24 42 -35 75 -12 33 -33 93 -48 134 -26 74 -27 109 -13 296 1 11 12 52
24 90 22 66 33 112 41 178 2 15 8 36 14 47 15 28 12 60 -5 60 -8 0 -15 5 -15
10 0 6 6 10 14 10 16 0 26 20 36 75 14 68 58 228 74 267 18 42 13 48 -30 37z
m-84 -284 c0 -8 -4 -15 -10 -15 -5 0 -10 7 -10 15 0 8 5 15 10 15 6 0 10 -7
10 -15z m-240 -235 c0 -5 -4 -10 -10 -10 -5 0 -10 5 -10 10 0 6 5 10 10 10 6
0 10 -4 10 -10z m64 -55 c-7 -17 -20 -20 -29 -6 -3 5 3 12 12 14 10 3 19 5 20
6 1 0 0 -6 -3 -14z m106 -39 c0 -2 -7 -6 -15 -10 -8 -3 -15 -1 -15 4 0 6 7 10
15 10 8 0 15 -2 15 -4z m-10 -142 c0 -2 -7 -4 -15 -4 -8 0 -15 4 -15 10 0 5 7
7 15 4 8 -4 15 -8 15 -10z m-460 -114 c0 -5 -5 -10 -11 -10 -5 0 -7 5 -4 10 3
6 8 10 11 10 2 0 4 -4 4 -10z m155 -90 c3 -5 2 -10 -4 -10 -5 0 -13 5 -16 10
-3 6 -2 10 4 10 5 0 13 -4 16 -10z m15 -230 c0 -5 -2 -10 -4 -10 -3 0 -8 5
-11 10 -3 6 -1 10 4 10 6 0 11 -4 11 -10z m350 -70 c-6 -11 -15 -20 -20 -20
-6 0 -2 9 7 20 10 11 19 20 21 20 1 0 -2 -9 -8 -20z m10 -161 c-7 -11 -14 -18
-17 -15 -3 3 0 12 7 21 18 21 23 19 10 -6z m93 -23 c-10 -14 -24 -28 -32 -31
-15 -6 -10 2 28 48 22 26 26 12 4 -17z"/>
<path d="M538 3233 c7 -3 16 -2 19 1 4 3 -2 6 -13 5 -11 0 -14 -3 -6 -6z"/>
<path d="M1275 3221 c-62 -9 -123 -35 -131 -56 -4 -9 -1 -28 7 -41 11 -21 11
-33 -1 -72 -19 -64 -21 -135 -4 -163 24 -42 27 -50 20 -56 -3 -3 -12 0 -21 7
-16 14 -18 10 -15 -35 2 -43 18 -54 96 -71 94 -19 143 -18 208 6 63 24 102 61
141 131 24 45 27 58 23 132 -3 74 -7 87 -36 130 -18 26 -50 56 -70 66 -43 22
-145 32 -217 22z m85 -212 c0 -5 -9 -9 -20 -9 -19 0 -27 20 -13 33 7 8 33 -11
33 -24z m-114 -37 c-9 -27 -36 -17 -36 12 0 31 11 39 28 22 8 -8 11 -22 8 -34z
m64 3 c10 -12 8 -16 -15 -25 -38 -14 -53 -1 -24 21 29 22 24 22 39 4z"/>
<path d="M3700 3205 c-7 -8 -19 -15 -26 -15 -18 0 -18 -16 0 -23 9 -4 12 -14
9 -26 -4 -15 -1 -21 11 -21 16 0 50 -16 72 -35 8 -7 6 -15 -10 -29 -14 -13
-17 -20 -8 -23 20 -8 14 -20 -14 -27 -27 -7 -27 -7 -6 -26 12 -11 28 -17 41
-13 48 12 98 -24 55 -41 -25 -9 -104 -7 -104 3 0 5 -9 13 -21 16 -15 5 -17 10
-9 20 8 10 3 14 -24 19 -40 8 -86 -8 -86 -29 0 -8 -5 -15 -11 -15 -8 0 -8 -4
0 -13 8 -10 7 -17 -1 -25 -8 -8 2 -10 36 -8 25 2 49 0 52 -5 3 -5 0 -9 -7 -9
-6 0 -9 -8 -6 -20 3 -10 0 -21 -7 -23 -6 -3 1 -8 17 -12 26 -7 38 -25 17 -25
-16 0 -11 -27 6 -34 9 -4 14 -13 10 -21 -3 -8 -1 -15 4 -15 6 0 10 -4 10 -10
0 -5 -9 -10 -19 -10 -41 0 -29 -18 17 -24 26 -4 70 -11 97 -15 45 -7 47 -8 23
-15 -16 -5 -25 -13 -22 -21 7 -18 -21 -25 -95 -24 -34 1 -65 -1 -68 -5 -3 -3
6 -6 20 -6 24 0 29 -4 26 -27 0 -4 9 -10 20 -15 35 -13 14 -38 -33 -39 -22 -1
-33 -3 -23 -6 32 -8 17 -23 -23 -23 -38 0 -86 -21 -102 -45 -4 -5 -31 -9 -60
-8 -30 2 -66 -4 -83 -12 -22 -10 -41 -11 -67 -6 -35 8 -48 6 -48 -9 0 -11 48
-30 75 -30 45 0 125 -49 118 -72 -2 -4 11 -15 28 -23 44 -24 32 -41 -27 -36
-27 1 -57 7 -66 12 -9 5 -35 9 -57 9 -22 0 -43 5 -46 10 -8 12 -62 13 -69 1
-7 -11 -93 -8 -118 3 -15 7 -18 3 -18 -19 0 -18 6 -29 20 -32 11 -3 20 -9 20
-14 0 -5 4 -9 9 -9 19 0 61 -48 61 -69 0 -11 4 -21 9 -21 5 0 13 -9 16 -20 12
-39 120 -90 219 -105 21 -3 50 -14 63 -25 14 -11 38 -20 54 -20 15 0 31 -4 34
-10 3 -5 13 -10 21 -10 14 0 14 2 0 15 -8 8 -19 15 -25 15 -17 0 -13 17 5 24
10 4 26 0 38 -9 12 -9 40 -28 64 -43 23 -15 42 -31 42 -37 1 -17 32 -49 80
-82 25 -17 56 -44 68 -61 26 -33 81 -50 110 -33 9 6 13 11 7 11 -5 0 1 6 15
13 14 7 26 23 28 37 2 14 9 32 16 40 18 22 66 116 66 128 0 6 5 23 12 39 28
67 62 265 48 279 -2 3 -3 21 -1 40 3 35 -18 124 -29 124 -3 0 -4 15 -2 34 2
21 -4 49 -18 76 -12 24 -24 54 -27 69 -2 14 -11 33 -19 42 -8 8 -14 26 -14 38
0 23 -21 67 -52 110 -10 13 -18 32 -18 41 0 10 -7 23 -14 30 -8 6 -20 28 -27
48 -7 20 -27 55 -46 78 -18 23 -33 44 -33 49 0 4 -25 33 -55 64 -31 31 -61 67
-68 81 -15 30 -39 36 -57 15z m85 -625 c-28 -12 -78 -12 -70 0 3 6 25 10 48 9
33 0 38 -2 22 -9z m-58 -230 c9 -11 9 -17 0 -22 -8 -5 -2 -16 18 -33 37 -30
21 -32 -42 -3 -72 32 -106 46 -125 52 -10 3 -18 10 -18 15 0 16 153 8 167 -9z
m-163 -35 c15 -8 32 -13 37 -10 10 7 33 -34 25 -43 -4 -3 -12 0 -18 6 -7 7
-29 12 -50 12 -34 0 -38 3 -38 25 0 29 5 30 44 10z m-41 -248 c15 -12 27 -26
27 -30 0 -15 -20 -6 -52 23 -39 36 -16 43 25 7z"/>
<path d="M262 3198 c-7 -7 -12 -16 -12 -20 0 -12 28 -10 36 3 10 17 -10 31
-24 17z"/>
<path d="M344 3165 c-8 -21 2 -32 34 -37 21 -3 28 0 28 13 0 10 -4 15 -8 13
-5 -3 -11 2 -14 10 -8 20 -33 21 -40 1z"/>
<path d="M244 3149 c-3 -6 -1 -14 5 -18 6 -4 9 -15 5 -24 -6 -18 2 -21 45 -17
17 1 21 -2 15 -12 -14 -22 -13 -68 2 -68 7 0 11 -6 8 -14 -4 -11 0 -13 15 -9
31 8 46 30 32 47 -10 11 -8 16 8 21 12 3 21 10 21 15 0 12 -36 31 -53 29 -20
-2 -57 13 -57 23 0 5 8 8 18 7 30 -3 35 1 22 16 -14 17 -76 20 -86 4z"/>
<path d="M32 3110 c-13 -12 -22 -32 -22 -48 l1 -27 14 25 c11 19 14 21 15 8 0
-18 15 -24 23 -10 11 16 11 65 2 69 -6 2 -21 -6 -33 -17z"/>
<path d="M115 3120 c3 -5 8 -10 11 -10 2 0 4 5 4 10 0 6 -5 10 -11 10 -5 0 -7
-4 -4 -10z"/>
<path d="M470 3095 c-11 -13 -8 -15 19 -15 21 0 31 5 31 15 0 8 -8 15 -19 15
-10 0 -24 -7 -31 -15z"/>
<path d="M120 3086 c0 -9 7 -12 21 -9 16 4 17 8 7 14 -19 13 -28 11 -28 -5z"/>
<path d="M240 3005 c0 -9 6 -12 15 -9 8 4 12 10 9 15 -8 14 -24 10 -24 -6z"/>
<path d="M4110 2940 c0 -29 15 -41 41 -32 l24 9 -25 8 c-14 4 -28 13 -32 19
-5 7 -8 6 -8 -4z"/>
<path d="M1526 2669 c-41 -33 -36 -74 19 -132 33 -36 45 -57 46 -80 1 -38 7
-55 36 -91 l23 -28 52 43 c29 24 66 57 83 73 16 15 60 44 98 62 107 54 127 84
86 125 -17 17 -23 18 -29 8 -7 -10 -23 -7 -74 15 -64 27 -68 28 -131 15 -52
-10 -75 -10 -111 -1 -59 16 -67 15 -98 -9z"/>
<path d="M3600 2585 c0 -10 10 -15 28 -15 26 1 26 1 8 15 -25 19 -36 19 -36 0z"/>
<path d="M2990 2371 c0 -12 39 -25 48 -16 7 7 -17 25 -35 25 -7 0 -13 -4 -13
-9z"/>
<path d="M2576 2340 c17 -18 126 -61 192 -77 20 -5 23 -2 20 13 -2 13 -14 21
-38 24 -31 5 -72 21 -132 51 -10 5 -28 9 -40 9 -22 0 -22 0 -2 -20z"/>
<path d="M3010 2330 c0 -5 5 -10 11 -10 5 0 7 5 4 10 -3 6 -8 10 -11 10 -2 0
-4 -4 -4 -10z"/>
<path d="M3000 2216 c0 -8 6 -17 13 -19 6 -3 3 -6 -8 -6 -12 -1 -26 4 -33 11
-9 9 -12 9 -12 0 0 -7 -16 -12 -41 -12 -22 0 -38 4 -35 8 2 4 -4 8 -14 9 -15
1 -15 -2 6 -24 24 -26 32 -67 15 -77 -5 -3 -14 1 -21 9 -13 16 -50 21 -50 7 0
-19 29 -45 51 -48 13 -1 28 -3 32 -3 4 -1 7 -7 5 -13 -3 -18 24 -58 39 -58 17
0 16 -6 -3 -36 -16 -23 -16 -26 2 -39 20 -15 31 -18 52 -16 8 1 16 -7 19 -18
3 -11 13 -23 23 -26 11 -3 43 -30 72 -59 29 -28 81 -72 115 -95 35 -24 74 -59
88 -77 15 -19 43 -43 65 -54 21 -11 64 -47 96 -80 75 -77 109 -89 169 -61 25
12 45 25 45 29 0 12 -69 74 -117 106 -23 15 -50 37 -60 48 -10 11 11 0 47 -26
147 -106 136 -100 164 -79 30 22 37 43 20 63 -11 13 -8 15 24 16 35 1 139 47
154 68 3 5 4 15 1 22 -6 17 -92 56 -105 48 -6 -4 -8 -3 -4 4 14 23 -15 22 -38
-1 -18 -18 -22 -31 -18 -52 l5 -29 -45 27 c-40 23 -47 25 -58 12 -10 -12 -10
-15 3 -15 8 0 17 -11 19 -25 3 -14 3 -25 1 -25 -8 0 -110 54 -136 72 -27 20
-29 20 -50 2 -12 -10 -24 -20 -26 -21 -2 -1 2 -9 9 -18 21 -25 4 -29 -28 -7
-15 11 -48 28 -73 38 -24 9 -52 26 -61 38 -16 18 -19 19 -29 6 -9 -13 -10 -12
-5 2 7 22 -15 43 -91 87 -32 19 -86 54 -120 78 -34 24 -66 43 -72 43 -5 0 -13
5 -17 11 -5 9 4 10 30 5 38 -7 106 -43 106 -55 0 -5 19 -17 42 -27 24 -10 62
-34 85 -51 24 -18 49 -33 57 -33 7 0 19 -7 27 -16 7 -9 22 -14 36 -11 13 2 26
0 29 -4 7 -11 24 -12 24 -1 0 9 -138 101 -200 133 -39 20 -48 33 -32 42 13 9
80 -20 114 -48 34 -29 91 -56 142 -69 25 -6 28 -5 21 11 -14 33 -13 73 2 73 8
0 11 5 7 11 -3 6 -15 9 -25 6 -11 -3 -17 -2 -14 2 7 13 -39 33 -78 34 -20 0
-33 5 -31 9 9 15 -23 20 -60 10 -29 -8 -36 -8 -36 4 0 8 -8 14 -17 14 -10 0
-34 15 -54 33 -20 18 -55 39 -78 47 -46 15 -56 35 -13 26 15 -3 33 -2 41 3 9
6 21 5 32 -2 10 -6 22 -7 26 -3 4 5 2 11 -4 13 -7 3 -13 11 -13 19 0 18 -18
18 -36 -1 -20 -20 -36 -19 -60 3 -11 11 -26 22 -34 26 -15 6 31 -1 63 -10 9
-3 17 -1 17 5 0 6 -9 11 -20 11 -11 0 -20 6 -20 13 0 16 -32 47 -48 47 -7 0
-12 -6 -12 -14z m180 -236 c0 -5 -4 -10 -9 -10 -6 0 -13 5 -16 10 -3 6 1 10 9
10 9 0 16 -4 16 -10z m104 -15 c-4 -8 -11 -15 -16 -15 -6 0 -5 6 2 15 7 8 14
15 16 15 2 0 1 -7 -2 -15z"/>
<path d="M1603 2065 c-29 -13 -53 -28 -53 -34 0 -6 -12 -17 -27 -26 -28 -15
-28 -15 -3 -11 90 17 133 30 143 47 7 11 20 19 29 19 26 0 22 17 -4 24 -30 8
-25 9 -85 -19z"/>
<path d="M2666 2061 c-8 -12 13 -28 49 -37 52 -12 83 -33 157 -105 40 -39 86
-77 101 -85 16 -9 27 -18 24 -21 -9 -9 124 -132 137 -127 8 3 16 -6 19 -23 8
-33 89 -98 112 -89 18 7 55 -14 55 -31 0 -6 -5 -13 -11 -15 -13 -4 20 -81 48
-113 48 -54 86 -62 161 -34 20 8 21 11 10 29 -7 12 -47 46 -88 78 -41 31 -77
59 -80 62 -3 3 -21 17 -42 32 -20 15 -42 33 -50 40 -7 7 -30 25 -50 41 -20 15
-65 52 -100 82 -35 30 -69 55 -75 55 -7 0 -28 17 -47 38 -19 20 -62 57 -95 82
-33 25 -63 53 -67 63 -3 9 -12 17 -20 17 -8 0 -14 4 -14 9 0 7 -108 61 -123
61 -3 0 -8 -4 -11 -9z"/>
<path d="M3648 1903 c6 -2 18 -2 25 0 6 3 1 5 -13 5 -14 0 -19 -2 -12 -5z"/>
<path d="M2707 1847 c-30 -24 -29 -51 3 -72 17 -11 30 -23 30 -27 0 -5 6 -8
14 -8 7 0 22 -12 32 -27 21 -33 44 -57 44 -47 0 3 7 1 15 -6 50 -41 -30 102
-93 167 -24 25 -33 29 -45 20z"/>
<path d="M2806 1828 c9 -31 55 -98 65 -98 5 0 9 -6 9 -13 0 -8 11 -24 25 -37
14 -13 25 -31 25 -41 0 -29 24 -41 38 -18 11 17 10 24 -8 46 -11 14 -20 32
-20 39 0 8 -4 14 -10 14 -11 0 -34 39 -27 47 3 3 28 -19 55 -47 28 -31 55 -51
63 -48 10 4 -4 23 -43 62 -45 46 -61 56 -78 51 -16 -5 -23 -2 -26 12 -3 10
-21 26 -40 36 l-35 17 7 -22z"/>
<path d="M2590 1830 c0 -17 17 -46 45 -76 23 -24 25 -25 25 -7 0 23 -39 84
-57 91 -7 2 -13 -2 -13 -8z"/>
<path d="M2356 1814 c-22 -22 -20 -38 7 -49 13 -6 21 -17 19 -28 -2 -13 4 -17
24 -17 21 0 24 3 15 13 -14 18 -3 28 24 21 18 -5 23 -1 28 22 3 19 0 32 -10
40 -24 17 -89 16 -107 -2z"/>
<path d="M2497 1824 c-4 -4 -7 -18 -7 -31 0 -27 50 -58 58 -35 2 7 10 19 18
26 21 21 17 36 -8 35 -13 -1 -30 1 -39 5 -8 4 -18 3 -22 0z"/>
<path d="M2275 1790 c-4 -7 -17 -9 -32 -5 -20 5 -24 2 -21 -12 4 -22 68 -26
76 -5 7 18 -13 38 -23 22z"/>
<path d="M3090 1556 c0 -8 17 -28 38 -45 28 -21 43 -45 55 -82 26 -79 21 -88
-20 -41 -36 41 -65 53 -79 31 -3 -6 0 -15 7 -20 9 -7 5 -7 -13 -3 -26 6 -28 4
-27 -27 0 -19 8 -54 19 -79 14 -37 22 -45 41 -43 13 1 41 3 62 4 25 2 42 9 49
22 6 12 17 17 29 14 29 -8 90 21 96 43 3 11 9 17 14 14 31 -19 -15 55 -54 86
-28 22 -30 23 -24 5 5 -13 -4 -8 -25 15 -40 43 -93 82 -101 74 -3 -4 -18 6
-32 20 -30 30 -35 32 -35 12z"/>
<path d="M3266 1547 c3 -10 9 -15 12 -12 3 3 0 11 -7 18 -10 9 -11 8 -5 -6z"/>
<path d="M3060 1490 c0 -5 5 -10 11 -10 5 0 7 5 4 10 -3 6 -8 10 -11 10 -2 0
-4 -4 -4 -10z"/>
<path d="M3070 1461 c0 -11 26 -22 34 -14 3 3 3 10 0 14 -7 12 -34 11 -34 0z"/>
<path d="M2911 1364 c-35 -18 -43 -39 -32 -81 6 -20 8 -40 5 -45 -3 -4 32 -8
77 -8 l82 0 -6 34 c-7 45 -48 107 -66 101 -7 -3 -19 -2 -25 3 -6 5 -21 3 -35
-4z"/>
<path d="M2770 1318 c-1 -21 -2 -22 -14 -5 -12 16 -46 15 -46 -2 0 -3 -4 -12
-9 -19 -7 -12 -12 -12 -32 0 -13 7 -27 17 -30 21 -3 4 -17 3 -31 -4 -19 -8
-31 -8 -46 0 -16 8 -21 7 -26 -5 -11 -29 -6 -44 13 -44 11 0 22 -4 25 -9 3 -4
30 -11 61 -15 31 -3 75 -11 99 -18 64 -17 106 2 106 48 0 21 -8 40 -22 54 -29
26 -48 25 -48 -2z"/>
<path d="M2484 1276 c-10 -27 2 -43 14 -19 8 14 9 24 2 28 -6 3 -13 -1 -16 -9z"/>
<path d="M1578 1251 c-20 -16 -21 -21 -8 -36 12 -15 9 -21 -28 -55 l-41 -38
40 -7 c22 -4 43 -13 46 -21 3 -8 13 -14 24 -14 10 0 22 -6 26 -14 4 -7 24 -20
43 -28 19 -8 58 -25 86 -38 40 -17 62 -21 95 -16 46 6 57 7 274 7 72 1 156 2
187 4 43 3 62 0 74 -12 13 -13 20 -14 35 -5 10 7 27 12 37 12 11 0 27 9 37 20
18 20 17 20 -29 20 -26 0 -60 7 -75 15 -27 14 -29 13 -24 -5 3 -11 0 -20 -6
-20 -6 0 -11 5 -11 11 0 16 -36 59 -43 52 -12 -11 -149 37 -238 83 -14 7 -48
18 -75 24 -27 6 -67 19 -89 29 -44 21 -100 30 -215 37 -41 3 -80 7 -87 9 -7 2
-22 -4 -35 -14z"/>
<path d="M1040 955 c0 -8 5 -15 10 -15 6 0 10 7 10 15 0 8 -4 15 -10 15 -5 0
-10 -7 -10 -15z"/>
<path d="M1120 956 c0 -7 -10 -17 -22 -21 -20 -6 -20 -8 -5 -12 9 -2 17 -10
17 -16 0 -8 3 -7 9 2 6 9 11 10 15 2 4 -6 27 -11 52 -11 28 0 43 4 39 10 -3 6
1 10 10 10 15 0 15 2 1 15 -32 32 -116 48 -116 21z"/>
<path d="M1360 934 c0 -8 5 -12 10 -9 6 4 8 11 5 16 -9 14 -15 11 -15 -7z"/>
<path d="M4298 843 c7 -3 16 -2 19 1 4 3 -2 6 -13 5 -11 0 -14 -3 -6 -6z"/>
<path d="M4108 663 c7 -3 16 -2 19 1 4 3 -2 6 -13 5 -11 0 -14 -3 -6 -6z"/>
<path d="M3416 616 c10 -8 21 -12 24 -10 5 6 -21 24 -34 24 -6 0 -1 -6 10 -14z"/>
<path d="M3920 616 c0 -9 39 -13 51 -5 10 6 4 9 -18 9 -18 0 -33 -2 -33 -4z"/>
<path d="M4240 546 c0 -17 41 -29 54 -16 6 6 -1 13 -18 20 -35 13 -36 13 -36
-4z"/>
<path d="M4167 544 c-16 -16 -5 -25 26 -22 17 2 31 8 30 13 -3 12 -46 19 -56
9z"/>
<path d="M3505 520 c3 -5 8 -10 11 -10 2 0 4 5 4 10 0 6 -5 10 -11 10 -5 0 -7
-4 -4 -10z"/>
<path d="M3608 498 c9 -9 15 -9 24 0 9 9 7 12 -12 12 -19 0 -21 -3 -12 -12z"/>
<path d="M4048 473 c6 -2 18 -2 25 0 6 3 1 5 -13 5 -14 0 -19 -2 -12 -5z"/>
<path d="M3587 463 c-4 -3 -7 -9 -7 -13 0 -9 47 -30 68 -30 13 1 11 6 -11 25
-29 26 -39 30 -50 18z"/>
<path d="M3888 383 c12 -2 30 -2 40 0 9 3 -1 5 -23 4 -22 0 -30 -2 -17 -4z"/>
<path d="M3848 223 c7 -3 16 -2 19 1 4 3 -2 6 -13 5 -11 0 -14 -3 -6 -6z"/>
<path d="M3700 210 c0 -5 6 -10 14 -10 8 0 18 5 21 10 3 6 -3 10 -14 10 -12 0
-21 -4 -21 -10z"/>
<path d="M3495 100 c3 -5 11 -10 16 -10 6 0 7 5 4 10 -3 6 -11 10 -16 10 -6 0
-7 -4 -4 -10z"/>
<path d="M3478 33 c6 -2 18 -2 25 0 6 3 1 5 -13 5 -14 0 -19 -2 -12 -5z"/>
<path d="M4740 20 c-13 -8 -13 -10 0 -14 27 -9 68 -2 63 12 -6 14 -42 16 -63
2z"/>
</g>
</svg>
